<?xml version="1.0" encoding="utf-8" ?>
<!-- Generator: Adobe Illustrator 23.0.6, SVG Export Plug-In . SVG Version: 6.00 Build 0)  -->
<svg
  version="1.1"
  id="Layer_1"
  xmlns="http://www.w3.org/2000/svg"
  xmlns:xlink="http://www.w3.org/1999/xlink"
  x="0px"
  y="0px"
  viewBox="0 0 349.7 234.2"
  style="enable-background:new 0 0 349.7 234.2;"
  xml:space="preserve"
>
<style type="text/css">
	.st0{fill:#232F3E;}
	.st1{fill-rule:evenodd;clip-rule:evenodd;fill:#FF9900;}
</style>
<title>Logo-Red_Hat-AWS-B-Standard-RGB</title>
<path
    class="st0"
    d="M284.8,121.8c-5.6,0-11.2-0.6-16.6-1.9c-4.3-0.9-8.5-2.4-12.5-4.4c-1.4-0.7-2.5-1.7-3.3-3.1c-0.4-1-0.7-2-0.7-3
	v-5.5c0-2.3,0.8-3.4,2.5-3.4c0.7,0,1.4,0.1,2,0.4c0.7,0.2,1.6,0.6,2.7,1.1c3.8,1.7,7.8,3,11.9,3.8c4.2,0.9,8.5,1.3,12.8,1.3
	c6.8,0,12.1-1.2,15.8-3.6c3.6-2.2,5.7-6.1,5.6-10.3c0.1-2.8-1-5.6-2.9-7.6c-2-2-5.6-3.9-10.9-5.7l-15.7-5
	c-7.9-2.5-13.7-6.2-17.3-11.1c-3.5-4.5-5.4-10.1-5.4-15.8c-0.1-4.2,0.9-8.4,2.9-12.2c1.9-3.5,4.6-6.6,7.7-9
	c3.4-2.6,7.2-4.5,11.2-5.6c4.4-1.3,9-1.9,13.6-1.9c2.4,0,4.9,0.2,7.3,0.5c2.5,0.3,4.8,0.7,7,1.2s4.2,1.1,6.1,1.7
	c1.6,0.5,3.1,1.1,4.5,1.9c1.2,0.7,2.3,1.6,3.2,2.7c0.7,1.1,1,2.4,0.9,3.6v5.2c0,2.3-0.8,3.4-2.5,3.4c-1.5-0.2-2.9-0.6-4.2-1.3
	c-6.5-2.9-13.6-4.3-20.8-4.2c-6.2,0-11,1-14.4,3s-5.1,5.2-5.1,9.7c-0.1,2.9,1.1,5.7,3.2,7.7c2.1,2.1,6.1,4.1,11.9,6l15.3,5
	c7.8,2.5,13.4,6,16.7,10.5c3.3,4.4,5.1,9.8,5,15.3c0.1,4.4-0.9,8.8-2.9,12.8c-1.9,3.7-4.6,7-7.8,9.6c-3.6,2.8-7.6,4.9-12,6.1
	C295.1,121.2,290,121.9,284.8,121.8L284.8,121.8z M146.2,119c-1.5,0.1-2.9-0.3-4.1-1c-0.9-0.7-1.6-2.1-2.3-4.3l-25.3-84.4
	c-0.5-1.4-0.8-2.9-1-4.4c-0.2-1.3,0.7-2.5,2-2.7c0.2,0,0.4,0,0.7,0h10.6c2,0,3.4,0.4,4.2,1s1.5,2.1,2.2,4.3l18.2,72.2l16.8-72.2
	c0.5-2.2,1.2-3.6,2.1-4.3c1.3-0.8,2.8-1.2,4.4-1h8.7c1.5-0.1,3.1,0.2,4.4,1c0.9,0.7,1.6,2.1,2.1,4.3l17,73.1l18.7-73.1
	c0.6-2.2,1.3-3.6,2.2-4.3s2.2-1,4.2-1h10c1.3-0.2,2.5,0.7,2.6,2c0,0.2,0,0.4,0,0.7c0,0.6-0.1,1.2-0.2,1.7c-0.2,0.9-0.4,1.8-0.8,2.7
	l-26.1,84.4c-0.6,2.2-1.4,3.6-2.3,4.3c-1.2,0.8-2.7,1.2-4.1,1h-9.3c-1.5,0.1-3.1-0.3-4.3-1.2c-0.9-0.8-1.6-2.2-2.1-4.4l-16.8-70.3
	l-16.6,70.3c-0.5,2.2-1.2,3.6-2.1,4.4c-1.3,0.9-2.8,1.3-4.4,1.2L146.2,119z M59.5,107.1c3.8,0,7.6-0.7,11.1-2c4-1.4,7.5-3.8,10.2-7
	c1.8-2,3-4.4,3.7-7c0.7-3.1,1.1-6.3,1-9.5v-4.6c-3.3-0.8-6.6-1.4-9.9-1.8c-3.4-0.4-6.7-0.7-10.1-0.7c-7.2,0-12.5,1.5-16,4.4
	c-3.5,2.9-5.3,7.1-5.3,12.6c0,5.1,1.3,9,4,11.5S54.7,107.1,59.5,107.1L59.5,107.1z M103.3,90.5c-0.1,3.3,0.3,6.6,1.2,9.7
	c0.9,2.7,2.1,5.3,3.5,7.8c0.5,0.7,0.7,1.6,0.8,2.5c0,1.2-0.7,2.2-2.1,3.2l-6.8,4.6c-0.8,0.6-1.8,0.9-2.8,1c-1.2-0.1-2.4-0.7-3.2-1.6
	c-1.5-1.5-2.8-3.2-3.9-5.1c-1.1-1.8-2.2-4-3.3-6.4c-8.4,10.1-19,15.1-31.7,15.1c-9.1,0-16.3-2.6-21.5-7.8c-5.3-5.2-7.9-12.2-7.9-21
	c0-9.3,3.3-16.8,9.8-22.4s15.4-8.5,26.4-8.5c3.8,0,7.6,0.3,11.4,0.9c4,0.6,8.1,1.4,12.4,2.4v-8c0-8.3-1.7-14.1-5.1-17.5
	c-3.4-3.4-9.3-5.1-17.6-5c-3.9,0-7.8,0.5-11.6,1.4c-4,1-7.8,2.2-11.6,3.7c-1.2,0.6-2.5,1.1-3.8,1.5c-0.6,0.2-1.1,0.3-1.7,0.3
	c-1.5,0-2.3-1.1-2.3-3.4v-5.4c-0.1-1.3,0.2-2.6,0.8-3.8c0.8-1,1.8-1.8,3-2.3c4.3-2.1,8.9-3.8,13.6-5c5.5-1.4,11.1-2.1,16.8-2.1
	c12.8,0,22.3,3,28.2,8.9c6,5.9,9,14.9,9,26.8L103.3,90.5L103.3,90.5z"
  />
<path
    class="st1"
    d="M305.2,175.6c-35.5,26.5-87,40.6-131.4,40.6c-62.2,0-118.2-23.2-160.5-61.9c-3.3-3-0.4-7.2,3.6-4.8
	c45.7,26.9,102.2,43.1,160.6,43.1c42.1-0.2,83.8-8.8,122.5-25.3C306.1,164.6,311.1,171.2,305.2,175.6L305.2,175.6z"
  />
<path
    class="st1"
    d="M320,158.5c-4.5-5.9-30-2.8-41.5-1.4c-3.5,0.4-4-2.7-0.9-4.9c20.3-14.4,53.7-10.3,57.5-5.4s-1,38.7-20.1,54.8
	c-2.9,2.5-5.7,1.2-4.4-2.1C315,188.6,324.6,164.4,320,158.5L320,158.5z"
  />
<path
    class="st1"
    d="M305.2,175.6c-35.5,26.5-87,40.6-131.4,40.6c-62.2,0-118.2-23.2-160.5-61.9c-3.3-3-0.4-7.2,3.6-4.8
	c45.7,26.9,102.2,43.1,160.6,43.1c42.1-0.2,83.8-8.8,122.5-25.3C306.1,164.6,311.1,171.2,305.2,175.6L305.2,175.6z"
  />
<path
    class="st1"
    d="M320,158.5c-4.5-5.9-30-2.8-41.5-1.4c-3.5,0.4-4-2.7-0.9-4.9c20.3-14.4,53.7-10.3,57.5-5.4s-1,38.7-20.1,54.8
	c-2.9,2.5-5.7,1.2-4.4-2.1C315,188.6,324.6,164.4,320,158.5L320,158.5z"
  />
</svg>
