<?xml version="1.0" encoding="utf-8"?>
<!-- Generator: Adobe Illustrator 23.0.6, SVG Export Plug-In . SVG Version: 6.00 Build 0)  -->
<svg version="1.1" id="Layer_1" xmlns="http://www.w3.org/2000/svg" xmlns:xlink="http://www.w3.org/1999/xlink" x="0px" y="0px"
	 viewBox="0 0 72.8 60" style="enable-background:new 0 0 72.8 60;" xml:space="preserve">
<style type="text/css">
	.st0{fill:#EA4535;}
	.st1{fill:#557EBF;}
	.st2{fill:#36A852;}
	.st3{fill:#F9BC15;}
</style>
<g>
	<path class="st0" d="M45.2,18.3l2.1,0l5.7-5.7l0.3-2.4C42.8,1,26.7,1.9,17.4,12.4c-2.6,2.9-4.5,6.5-5.6,10.3
		c0.6-0.4,1.9-0.1,1.9-0.1l11.3-1.9c0,0,0.6-1,0.9-0.9C31,14.2,39.4,13.6,45.2,18.3z"/>
	<path class="st1" d="M60.9,22.7c-1.3-4.8-4-9.1-7.7-12.4l-8,8c3.3,2.7,5.3,6.7,5.3,11v1.4c3.9,0.1,7,3.3,6.9,7.2
		c-0.1,3.8-3.1,6.8-6.9,6.9H36.4L35,46.3v8.5l1.4,1.4h14.1c10.1,0,18.4-8.2,18.4-18.3C68.9,31.7,65.9,26.1,60.9,22.7L60.9,22.7z"/>
	<path class="st2" d="M22.3,56.1h14.1V44.8H22.3c-1,0-2-0.2-2.9-0.6l-2,0.6l-5.7,5.7l-0.5,1.9C14.3,54.8,18.2,56.1,22.3,56.1z"/>
	<path class="st3" d="M22.3,19.4c-10.1,0-18.4,8.2-18.4,18.4c0,5.7,2.7,11.2,7.3,14.6l8.2-8.2c-3.6-1.6-5.1-5.8-3.6-9.3
		c1.6-3.6,5.8-5.1,9.3-3.6c1.6,0.7,2.8,2,3.6,3.6l8.2-8.2C33.4,22.1,28,19.4,22.3,19.4z"/>
</g>
</svg>
