<?xml version="1.0" encoding="utf-8" ?>
<!-- Generator: Adobe Illustrator 23.0.6, SVG Export Plug-In . SVG Version: 6.00 Build 0)  -->
<svg
  version="1.1"
  id="Layer_1"
  xmlns="http://www.w3.org/2000/svg"
  xmlns:xlink="http://www.w3.org/1999/xlink"
  x="0px"
  y="0px"
  viewBox="0 0 150 150"
  style="enable-background:new 0 0 150 150;"
  xml:space="preserve"
>
<style type="text/css">
	.st0{fill:url(#SVGID_1_);}
	.st1{fill:#0078D4;}
	.st2{fill:url(#SVGID_2_);}
	.st3{fill:url(#SVGID_3_);}
</style>
<linearGradient
    id="SVGID_1_"
    gradientUnits="userSpaceOnUse"
    x1="-1523.2122"
    y1="2243.6479"
    x2="-1550.2532"
    y2="2323.5339"
    gradientTransform="matrix(1.5625 0 0 1.5625 2446.9375 -3485.875)"
  >
	<stop offset="0" style="stop-color:#114A8B" />
	<stop offset="1" style="stop-color:#0669BC" />
</linearGradient>
<path
    class="st0"
    d="M52.1,10.2h40.7L50.5,135.4c-0.9,2.6-3.4,4.4-6.1,4.4H12.7c-3.6,0-6.5-2.9-6.5-6.5c0-0.7,0.1-1.4,0.3-2.1
	L45.9,14.6C46.8,12,49.3,10.2,52.1,10.2L52.1,10.2z"
  />
<path
    class="st1"
    d="M111.2,94.2H46.7c-1.6,0-3,1.3-3,3c0,0.8,0.3,1.6,1,2.2L86.1,138c1.2,1.1,2.8,1.8,4.4,1.8h36.5L111.2,94.2z"
  />
<linearGradient
    id="SVGID_2_"
    gradientUnits="userSpaceOnUse"
    x1="-1514.7654"
    y1="2280.8757"
    x2="-1521.0204"
    y2="2282.9907"
    gradientTransform="matrix(1.5625 0 0 1.5625 2446.9375 -3485.875)"
  >
	<stop offset="0" style="stop-color:#000000;stop-opacity:0.3" />
	<stop offset="7.100000e-02" style="stop-color:#000000;stop-opacity:0.2" />
	<stop offset="0.321" style="stop-color:#000000;stop-opacity:0.1" />
	<stop offset="0.623" style="stop-color:#000000;stop-opacity:5.000000e-02" />
	<stop offset="1" style="stop-color:#000000;stop-opacity:0" />
</linearGradient>
<path
    class="st2"
    d="M52.1,10.2c-2.8,0-5.3,1.8-6.2,4.5L6.6,131.1c-1.2,3.4,0.5,7.1,3.9,8.3c0.7,0.3,1.5,0.4,2.2,0.4h32.5
	c2.5-0.4,4.5-2.2,5.3-4.5l7.8-23.1l28,26.1c1.2,1,2.6,1.5,4.2,1.5h36.4l-16-45.6l-46.5,0l28.5-83.9H52.1z"
  />
<linearGradient
    id="SVGID_3_"
    gradientUnits="userSpaceOnUse"
    x1="-1518.0107"
    y1="2241.2451"
    x2="-1488.3278"
    y2="2320.3262"
    gradientTransform="matrix(1.5625 0 0 1.5625 2446.9375 -3485.875)"
  >
	<stop offset="0" style="stop-color:#3CCBF4" />
	<stop offset="1" style="stop-color:#2892DF" />
</linearGradient>
<path
    class="st3"
    d="M104.1,14.6c-0.9-2.6-3.4-4.4-6.1-4.4H52.6c2.8,0,5.2,1.8,6.1,4.4l39.3,116.6c1.1,3.4-0.7,7.1-4.1,8.2
	c-0.7,0.2-1.4,0.3-2.1,0.3h45.3c3.6,0,6.5-2.9,6.5-6.5c0-0.7-0.1-1.4-0.3-2.1L104.1,14.6z"
  />
</svg>
